<svg width="396" height="345" viewBox="0 0 396 345" fill="none" xmlns="http://www.w3.org/2000/svg">
<g filter="url(#filter0_d_1_2)">
<rect x="71" y="43" width="256" height="256" rx="128" fill="#073B3A"/>
<rect x="71" y="43" width="256" height="256" rx="128" stroke="#39FF14" stroke-width="2"/>
<line x1="198" y1="298" x2="198" y2="44" stroke="#39FF14" stroke-width="2"/>
<line x1="108.293" y1="259.898" x2="287.898" y2="80.2929" stroke="#39FF14" stroke-width="2"/>
<line x1="149.278" y1="287.753" x2="246.479" y2="53.0872" stroke="#39FF14" stroke-width="2"/>
<line x1="81.6173" y1="218.278" x2="316.283" y2="121.076" stroke="#39FF14" stroke-width="2"/>
<line x1="287.898" y1="261.312" x2="108.293" y2="81.7071" stroke="#39FF14" stroke-width="2"/>
<line x1="315.753" y1="220.327" x2="81.0872" y2="123.126" stroke="#39FF14" stroke-width="2"/>
<line x1="246.479" y1="288.518" x2="149.278" y2="53.8525" stroke="#39FF14" stroke-width="2"/>
<line x1="326" y1="172" x2="72" y2="172.01" stroke="#39FF14" stroke-width="2"/>
<rect x="84" y="56" width="229" height="229" rx="114.5" fill="#073B3A"/>
<rect x="84" y="56" width="229" height="229" rx="114.5" stroke="#39FF14" stroke-width="2"/>
<rect x="100" y="72" width="198" height="198" rx="99" stroke="#CCFF00" stroke-width="2"/>
<path d="M144.5 93.2539L214.146 160.461L183.834 181.685L144.5 93.2539Z" fill="#99FF33"/>
<path d="M253.48 248.893L214.146 160.461L183.834 181.685L253.48 248.893Z" fill="#99FF33"/>
<circle cx="138.5" cy="83.5" r="2.5" fill="#39FF14"/>
<circle cx="138.5" cy="83.5" r="2.5" stroke="#39FF14"/>
<circle cx="256.5" cy="258.5" r="2.5" fill="#39FF14"/>
<circle cx="256.5" cy="258.5" r="2.5" stroke="#39FF14"/>
<circle cx="288.5" cy="226.5" r="2.5" fill="#39FF14"/>
<circle cx="288.5" cy="226.5" r="2.5" stroke="#39FF14"/>
<circle cx="302.5" cy="190.5" r="2.5" fill="#39FF14"/>
<circle cx="302.5" cy="190.5" r="2.5" stroke="#39FF14"/>
<circle cx="216.5" cy="276.5" r="2.5" fill="#39FF14"/>
<circle cx="216.5" cy="276.5" r="2.5" stroke="#39FF14"/>
<circle cx="178.5" cy="276.5" r="2.5" fill="#39FF14"/>
<circle cx="178.5" cy="276.5" r="2.5" stroke="#39FF14"/>
<circle cx="138.5" cy="258.5" r="2.5" fill="#39FF14"/>
<circle cx="138.5" cy="258.5" r="2.5" stroke="#39FF14"/>
<circle cx="110.5" cy="231.5" r="2.5" fill="#39FF14"/>
<circle cx="110.5" cy="231.5" r="2.5" stroke="#39FF14"/>
<circle cx="93.5" cy="190.5" r="2.5" fill="#39FF14"/>
<circle cx="93.5" cy="190.5" r="2.5" stroke="#39FF14"/>
<circle cx="93.5" cy="154.5" r="2.5" fill="#39FF14"/>
<circle cx="93.5" cy="154.5" r="2.5" stroke="#39FF14"/>
<circle cx="288.5" cy="113.5" r="2.5" fill="#39FF14"/>
<circle cx="288.5" cy="113.5" r="2.5" stroke="#39FF14"/>
<circle cx="256.5" cy="80.5" r="2.5" fill="#39FF14"/>
<circle cx="256.5" cy="80.5" r="2.5" stroke="#39FF14"/>
<circle cx="216.5" cy="65.5" r="2.5" fill="#39FF14"/>
<circle cx="216.5" cy="65.5" r="2.5" stroke="#39FF14"/>
<circle cx="178.5" cy="65.5" r="2.5" fill="#39FF14"/>
<circle cx="178.5" cy="65.5" r="2.5" stroke="#39FF14"/>
<circle cx="110.5" cy="113.5" r="2.5" fill="#39FF14"/>
<circle cx="110.5" cy="113.5" r="2.5" stroke="#39FF14"/>
<circle cx="304.5" cy="151.5" r="2.5" fill="#39FF14"/>
<circle cx="304.5" cy="151.5" r="2.5" stroke="#39FF14"/>
<rect width="27.5213" height="22.1042" transform="matrix(-0.439114 0.898431 -0.972567 -0.232622 289.744 269.578)" fill="#073B3A"/>
<path d="M281.654 277.471L276.493 281.085L275.785 280.192L279.815 277.37L277.783 274.807L274.183 277.328L273.475 276.435L277.075 273.914L274.708 270.928L270.678 273.75L269.97 272.857L275.13 269.244L281.654 277.471ZM266.046 275.422C266.603 275.032 267.217 274.778 267.889 274.661C268.552 274.55 269.19 274.591 269.802 274.784L269.635 275.924C269.133 275.789 268.612 275.758 268.071 275.831C267.537 275.913 267.082 276.086 266.705 276.35C266.222 276.688 265.926 277.078 265.817 277.519C265.7 277.967 265.794 278.382 266.099 278.766C266.298 279.017 266.525 279.199 266.78 279.313C267.028 279.432 267.347 279.489 267.737 279.483C268.126 279.492 268.634 279.441 269.26 279.331C270.46 279.125 271.382 279.076 272.029 279.184C272.673 279.306 273.188 279.609 273.573 280.095C274.07 280.722 274.23 281.39 274.053 282.099C273.876 282.807 273.394 283.437 272.608 283.988C272.059 284.372 271.469 284.608 270.839 284.697C270.2 284.791 269.626 284.717 269.117 284.477L269.444 283.443C269.858 283.58 270.283 283.618 270.718 283.556C271.154 283.495 271.544 283.344 271.888 283.103C272.346 282.782 272.627 282.421 272.73 282.02C272.83 281.633 272.741 281.263 272.461 280.91C272.293 280.699 272.101 280.553 271.885 280.473C271.669 280.393 271.364 280.362 270.971 280.381C270.577 280.414 269.984 280.494 269.193 280.621C268.123 280.798 267.265 280.808 266.618 280.651C265.978 280.502 265.45 280.165 265.034 279.64C264.679 279.194 264.484 278.715 264.449 278.204C264.411 277.706 264.53 277.214 264.807 276.728C265.076 276.247 265.489 275.812 266.046 275.422Z" fill="white"/>
<rect width="22.1565" height="17.8508" transform="matrix(0.962143 0.272545 -0.0649169 0.997891 299.818 88.6396)" fill="#073B3A"/>
<path d="M309.765 98.6618L302.471 106.215L301.489 105.267L303.604 95.7566L297.831 101.734L296.839 100.776L304.133 93.2226L305.179 94.2333L303.073 103.605L308.772 97.7032L309.765 98.6618ZM311.498 100.336L316.03 104.712L315.238 105.532L311.699 102.114L309.428 104.467L312.589 107.52L311.797 108.34L308.636 105.287L305.989 108.027L309.528 111.445L308.736 112.265L304.204 107.889L311.498 100.336Z" fill="white"/>
<rect width="24.1555" height="17.6289" transform="matrix(0.919366 0.393402 0.100105 0.994977 80.8878 228.238)" fill="#073B3A"/>
<path d="M79.727 243.498C79.2462 243.017 78.8949 242.461 78.6733 241.829C78.4587 241.204 78.4023 240.582 78.5041 239.963L79.685 239.956C79.6247 240.461 79.6734 240.969 79.8311 241.481C79.9957 241.985 80.2407 242.399 80.5659 242.725C80.9831 243.142 81.4238 243.37 81.888 243.41C82.3592 243.457 82.766 243.306 83.1084 242.955C83.332 242.726 83.4817 242.48 83.5574 242.216C83.6403 241.96 83.6489 241.643 83.5835 241.266C83.532 240.89 83.4027 240.407 83.1953 239.818C82.802 238.689 82.6106 237.805 82.6208 237.164C82.6452 236.524 82.8739 235.982 83.3071 235.539C83.8661 234.966 84.5183 234.714 85.2638 234.78C86.0093 234.847 86.7215 235.22 87.4003 235.899C87.8741 236.372 88.2041 236.907 88.3904 237.504C88.5837 238.107 88.5976 238.673 88.432 239.2L87.3345 239.036C87.4093 238.616 87.3823 238.2 87.2533 237.788C87.1244 237.376 86.9114 237.022 86.6144 236.725C86.2184 236.329 85.8094 236.111 85.3874 236.071C84.9795 236.03 84.6183 236.171 84.3039 236.493C84.1153 236.686 83.997 236.893 83.9491 237.114C83.9012 237.335 83.917 237.633 83.9965 238.01C84.0901 238.386 84.2622 238.947 84.5126 239.693C84.8559 240.701 84.9979 241.528 84.9385 242.176C84.886 242.816 84.6257 243.376 84.1576 243.856C83.7593 244.263 83.3039 244.522 82.7914 244.632C82.293 244.742 81.7761 244.698 81.2407 244.502C80.7124 244.313 80.2078 243.979 79.727 243.498ZM98.5311 247.241L89.6567 253.215L88.6915 252.25L93.1057 244.489L85.4777 249.036L84.5125 248.071L90.3003 239.011L91.3504 240.061L86.5312 247.099L93.9278 242.638L94.9142 243.625L90.6038 251.129L97.481 246.191L98.5311 247.241Z" fill="white"/>
<rect x="111" y="58.0601" width="28" height="24.3444" transform="rotate(-35 111 58.0601)" fill="#073B3A"/>
<path d="M123.944 58.6316L129.967 67.2327L128.849 68.0157L119.917 64.1252L124.683 70.9323L123.553 71.7239L117.53 63.1228L118.722 62.2882L127.52 66.1443L122.814 59.4232L123.944 58.6316ZM134.79 51.0377L139.03 60.8863L137.912 61.6693L131.118 55.9155L134.189 64.2762L133.071 65.0591L125.255 57.7142L126.471 56.8624L132.485 62.8878L129.457 54.7717L130.6 53.9716L137.161 59.5767L133.573 51.8895L134.79 51.0377Z" fill="white"/>
</g>
<path d="M181.682 151.975L303.274 66.2848L217.584 187.877L181.682 151.975Z" fill="#073B3A" stroke="#39FF14"/>
<path d="M180.975 152.682L95.2849 274.274L216.877 188.584L180.975 152.682Z" fill="#073B3A" stroke="#39FF14"/>
<rect width="224" height="46" transform="translate(67 151)" fill="#073B3A"/>
<path d="M72 197L294 197" stroke="#39FF14" stroke-width="2"/>
<line x1="101.999" y1="150.44" x2="295.001" y2="150.44" stroke="#39FF14" stroke-width="2"/>
<path d="M73.6094 196.767C72.722 196.767 71.8958 196.369 71.1309 195.573C70.3965 194.808 69.7845 193.691 69.2949 192.223C68.8359 190.785 68.4993 189.01 68.2852 186.898C68.1016 184.757 68.1169 182.324 68.3311 179.601C68.4535 177.795 68.6982 175.959 69.0654 174.093C69.4326 172.196 69.8457 170.375 70.3047 168.631C70.7637 166.856 71.2533 165.188 71.7734 163.628C72.2936 162.067 72.7679 160.69 73.1963 159.497C73.6553 158.273 74.0225 157.294 74.2979 156.56C74.6038 155.825 74.7874 155.397 74.8486 155.274C74.9404 155.121 75.1087 154.968 75.3535 154.815C75.6289 154.632 75.9349 154.479 76.2715 154.356C76.6387 154.234 77.0212 154.142 77.4189 154.081C77.8473 153.989 78.2451 153.943 78.6123 153.943C78.9183 153.943 79.209 153.959 79.4844 153.989C79.7292 154.02 79.974 154.066 80.2188 154.127C80.4635 154.188 80.6777 154.28 80.8613 154.402C80.5247 154.617 80.1882 154.953 79.8516 155.412C79.5456 155.841 79.2549 156.299 78.9795 156.789C78.6429 157.34 78.3369 157.937 78.0615 158.579C77.4495 159.864 76.807 161.425 76.1338 163.261C75.4606 165.097 74.818 167.055 74.2061 169.136C73.6247 171.186 73.1045 173.282 72.6455 175.424C72.2171 177.535 71.9264 179.524 71.7734 181.391C71.5286 185.154 71.6663 187.954 72.1865 189.79C72.7067 191.657 73.4411 192.59 74.3896 192.59C74.8486 192.59 75.3382 192.299 75.8584 191.718C76.3786 191.136 76.8988 190.387 77.4189 189.469C77.9697 188.551 78.5052 187.526 79.0254 186.394C79.5456 185.261 80.0352 184.145 80.4941 183.043C80.7695 182.339 81.0602 181.559 81.3662 180.702C81.7028 179.815 82.0241 178.912 82.3301 177.994C82.6667 177.076 82.988 176.174 83.2939 175.286C83.5999 174.368 83.8753 173.542 84.1201 172.808C84.1201 171.89 84.1354 170.926 84.166 169.916C84.1966 168.876 84.2578 167.835 84.3496 166.795C84.472 165.724 84.625 164.684 84.8086 163.674C84.9922 162.633 85.237 161.685 85.543 160.828C86.1549 159.176 86.874 157.967 87.7002 157.202C88.5264 156.407 89.2454 155.993 89.8574 155.963C90.2858 155.963 90.5918 156.146 90.7754 156.514C90.959 156.881 91.0355 157.37 91.0049 157.982C90.9437 158.778 90.806 159.742 90.5918 160.874C90.3776 161.976 90.1175 163.169 89.8115 164.454C89.5361 165.709 89.2148 166.994 88.8477 168.31C88.4805 169.595 88.1286 170.834 87.792 172.027C87.2412 175.179 86.9046 178.04 86.7822 180.61C86.6598 183.15 86.6751 185.338 86.8281 187.174C87.0117 188.979 87.3024 190.371 87.7002 191.351C88.1286 192.36 88.6335 192.865 89.2148 192.865C89.888 192.865 90.5918 192.406 91.3262 191.488C92.0911 190.57 92.8408 189.362 93.5752 187.862C94.3096 186.332 95.0133 184.604 95.6865 182.676C96.3903 180.748 97.0176 178.774 97.5684 176.755C98.1497 174.705 98.624 172.701 98.9912 170.742C99.3584 168.753 99.6032 166.963 99.7256 165.372C99.8174 164.056 99.8633 162.756 99.8633 161.471C99.8633 160.369 99.8174 159.191 99.7256 157.937C99.6338 156.682 99.4655 155.55 99.2207 154.54C99.6185 154.203 100.154 153.928 100.827 153.714C101.164 153.591 101.531 153.484 101.929 153.393C102.174 153.331 102.434 153.285 102.709 153.255C102.954 153.224 103.199 153.209 103.443 153.209C103.688 153.178 103.918 153.194 104.132 153.255C104.315 153.683 104.438 154.234 104.499 154.907C104.591 155.58 104.652 156.238 104.683 156.881C104.713 157.646 104.698 158.441 104.637 159.268C104.392 162.511 103.964 165.693 103.352 168.814C102.77 171.936 102.051 174.904 101.194 177.719C100.338 180.503 99.3737 183.074 98.3027 185.43C97.2624 187.755 96.1761 189.775 95.0439 191.488C93.9424 193.202 92.8255 194.533 91.6934 195.481C90.5918 196.43 89.5361 196.904 88.5264 196.904C87.4554 196.904 86.5986 196.445 85.9561 195.527C85.3135 194.64 84.8239 193.508 84.4873 192.131C84.1507 190.785 83.9365 189.331 83.8447 187.771C83.7529 186.21 83.7223 184.772 83.7529 183.456C83.0492 185.17 82.2842 186.822 81.458 188.413C80.6624 190.004 79.821 191.412 78.9336 192.636C78.0768 193.89 77.1895 194.885 76.2715 195.619C75.3841 196.384 74.4967 196.767 73.6094 196.767ZM128.963 178.866C128.535 179.478 127.984 180.243 127.311 181.161C126.637 182.049 125.934 182.951 125.199 183.869C124.495 184.757 123.792 185.583 123.088 186.348C122.415 187.082 121.849 187.602 121.39 187.908C121.084 188.092 120.732 188.245 120.334 188.367C119.936 188.49 119.523 188.566 119.095 188.597C118.697 188.627 118.314 188.597 117.947 188.505C117.58 188.444 117.259 188.321 116.983 188.138C116.708 187.924 116.479 187.618 116.295 187.22C116.142 186.883 115.989 186.439 115.836 185.889C115.714 185.338 115.668 184.649 115.698 183.823C114.964 185.047 114.153 185.996 113.266 186.669C112.378 187.312 111.537 187.786 110.741 188.092C109.823 188.428 108.905 188.627 107.987 188.688C107.559 188.688 107.1 188.535 106.61 188.229C106.121 187.954 105.708 187.51 105.371 186.898C105.035 186.256 104.82 185.445 104.729 184.466C104.637 183.456 104.759 182.263 105.096 180.886C105.524 179.019 106.197 177.321 107.115 175.791C108.064 174.261 109.089 172.961 110.19 171.89C111.292 170.788 112.378 169.962 113.449 169.411C114.52 168.86 115.408 168.616 116.111 168.677C116.938 168.83 117.611 169.075 118.131 169.411C118.559 169.717 118.835 170.176 118.957 170.788C119.11 171.369 118.865 172.15 118.223 173.129C118.651 173.037 119.003 172.976 119.278 172.945C119.584 172.915 119.814 172.899 119.967 172.899C120.15 172.899 120.273 172.915 120.334 172.945C120.365 173.007 120.38 173.144 120.38 173.358C120.38 173.542 120.334 173.894 120.242 174.414C120.15 174.934 120.013 175.638 119.829 176.525C119.646 177.413 119.401 178.56 119.095 179.968C119.034 180.243 118.972 180.503 118.911 180.748C118.881 180.962 118.835 181.192 118.773 181.437C118.743 181.651 118.697 181.911 118.636 182.217C118.575 182.523 118.498 182.905 118.406 183.364C118.376 183.64 118.36 183.946 118.36 184.282C118.391 184.588 118.452 184.879 118.544 185.154C118.636 185.43 118.773 185.659 118.957 185.843C119.171 185.996 119.462 186.072 119.829 186.072C120.135 186.072 120.533 185.889 121.022 185.521C121.512 185.124 122.032 184.634 122.583 184.053C123.134 183.441 123.7 182.783 124.281 182.079C124.893 181.345 125.459 180.641 125.979 179.968C126.5 179.295 126.959 178.698 127.356 178.178C127.785 177.658 128.091 177.275 128.274 177.03C128.519 176.755 128.764 176.602 129.009 176.571C129.254 176.51 129.437 176.571 129.56 176.755C129.682 176.938 129.697 177.214 129.605 177.581C129.544 177.948 129.33 178.377 128.963 178.866ZM115.515 180.886C115.668 180.274 115.851 179.555 116.065 178.729C116.28 177.902 116.463 177.107 116.616 176.342C116.769 175.577 116.876 174.95 116.938 174.46C117.029 173.94 117.014 173.695 116.892 173.726C116.739 173.756 116.57 173.802 116.387 173.863C116.234 173.924 116.035 173.97 115.79 174.001C115.545 174.032 115.3 174.077 115.056 174.139C115.3 173.649 115.438 173.251 115.469 172.945C115.53 172.609 115.545 172.349 115.515 172.165C115.484 171.951 115.423 171.783 115.331 171.66C114.994 171.385 114.398 171.614 113.541 172.349C112.715 173.052 111.751 174.368 110.649 176.296C110.19 177.091 109.823 177.948 109.548 178.866C109.272 179.754 109.074 180.595 108.951 181.391C108.859 182.186 108.844 182.89 108.905 183.502C108.966 184.083 109.089 184.466 109.272 184.649C109.609 184.986 109.992 185.154 110.42 185.154C110.848 185.124 111.277 185.001 111.705 184.787C112.164 184.542 112.608 184.236 113.036 183.869C113.495 183.502 113.893 183.119 114.229 182.722C114.597 182.324 114.887 181.957 115.102 181.62C115.346 181.284 115.484 181.039 115.515 180.886ZM139.52 189.147C138.816 189.147 138.204 189.01 137.684 188.734C137.194 188.49 136.796 188.153 136.49 187.725C136.184 187.296 135.985 186.807 135.894 186.256C135.802 185.674 135.832 185.063 135.985 184.42C136.077 183.992 136.23 183.425 136.444 182.722C136.659 181.987 136.873 181.207 137.087 180.381C137.332 179.524 137.546 178.683 137.729 177.856C137.944 177 138.081 176.235 138.143 175.562C138.204 174.858 138.173 174.292 138.051 173.863C137.928 173.404 137.668 173.175 137.271 173.175C136.781 173.175 136.276 173.343 135.756 173.68C135.236 173.986 134.7 174.414 134.149 174.965C133.629 175.516 133.094 176.158 132.543 176.893C132.023 177.596 131.503 178.331 130.982 179.096C130.707 180.136 130.478 181.054 130.294 181.85C130.11 182.615 129.942 183.318 129.789 183.961C129.667 184.573 129.544 185.124 129.422 185.613C129.299 186.072 129.192 186.516 129.101 186.944C129.009 187.25 128.733 187.556 128.274 187.862C127.815 188.138 127.326 188.367 126.806 188.551C126.285 188.734 125.842 188.826 125.475 188.826C125.077 188.826 124.909 188.688 124.97 188.413C125 188.229 125.107 187.816 125.291 187.174C125.444 186.531 125.643 185.782 125.888 184.925C126.102 184.037 126.331 183.104 126.576 182.125C126.821 181.146 127.05 180.213 127.265 179.325C127.418 178.621 127.586 177.841 127.77 176.984C127.923 176.25 128.106 175.393 128.32 174.414C128.565 173.435 128.84 172.364 129.146 171.201C129.361 171.018 129.575 170.88 129.789 170.788C130.034 170.666 130.279 170.574 130.523 170.513C130.768 170.421 131.028 170.36 131.304 170.329C131.549 170.329 131.793 170.344 132.038 170.375C132.252 170.406 132.466 170.467 132.681 170.559C132.925 170.62 133.14 170.727 133.323 170.88C133.231 171.094 133.124 171.4 133.002 171.798C132.88 172.165 132.757 172.563 132.635 172.991C132.512 173.481 132.359 173.986 132.176 174.506C132.574 173.955 133.017 173.404 133.507 172.854C134.027 172.272 134.578 171.752 135.159 171.293C135.771 170.834 136.414 170.467 137.087 170.191C137.76 169.885 138.449 169.732 139.152 169.732C139.734 169.732 140.254 169.901 140.713 170.237C141.172 170.574 141.524 171.048 141.769 171.66C142.044 172.242 142.197 172.945 142.228 173.771C142.289 174.598 142.182 175.5 141.906 176.479L141.401 178.499C141.248 179.142 141.049 179.907 140.805 180.794C140.59 181.651 140.315 182.599 139.979 183.64C139.795 184.313 139.718 184.894 139.749 185.384C139.81 185.873 140.116 186.118 140.667 186.118C141.218 186.118 141.906 185.782 142.732 185.108C143.589 184.435 144.446 183.624 145.303 182.676C146.16 181.727 146.97 180.763 147.735 179.784C148.5 178.774 149.082 177.964 149.479 177.352C149.755 176.954 150.015 176.694 150.26 176.571C150.505 176.449 150.688 176.434 150.811 176.525C150.964 176.617 151.04 176.831 151.04 177.168C151.04 177.474 150.918 177.872 150.673 178.361C150.459 178.79 150.122 179.356 149.663 180.06C149.235 180.763 148.715 181.513 148.103 182.309C147.491 183.104 146.833 183.915 146.129 184.741C145.425 185.537 144.691 186.271 143.926 186.944C143.161 187.587 142.396 188.107 141.631 188.505C140.896 188.933 140.193 189.147 139.52 189.147ZM162.193 179.233C162.04 180.182 161.887 181.085 161.734 181.941C161.612 182.798 161.535 183.487 161.505 184.007C161.474 184.772 161.612 185.323 161.918 185.659C162.224 185.996 162.561 186.164 162.928 186.164C163.356 186.164 163.876 185.95 164.488 185.521C165.131 185.093 165.804 184.558 166.508 183.915C167.212 183.272 167.915 182.569 168.619 181.804C169.323 181.039 169.965 180.32 170.547 179.646C171.159 178.943 171.664 178.331 172.062 177.811C172.49 177.29 172.781 176.954 172.934 176.801C173.117 176.617 173.301 176.51 173.484 176.479C173.699 176.449 173.867 176.479 173.989 176.571C174.112 176.663 174.173 176.831 174.173 177.076C174.173 177.321 174.05 177.627 173.806 177.994C173.438 178.576 172.964 179.264 172.383 180.06C171.801 180.825 171.159 181.62 170.455 182.446C169.751 183.272 169.002 184.083 168.206 184.879C167.441 185.674 166.661 186.378 165.865 186.99C165.1 187.602 164.351 188.092 163.616 188.459C162.912 188.857 162.27 189.056 161.688 189.056C161.26 189.056 160.847 188.933 160.449 188.688C160.082 188.444 159.745 188.122 159.439 187.725C159.133 187.327 158.889 186.883 158.705 186.394C158.552 185.904 158.491 185.414 158.521 184.925C158.552 184.711 158.598 184.343 158.659 183.823C157.374 185.261 156.074 186.409 154.758 187.266C153.473 188.092 152.233 188.505 151.04 188.505C150.612 188.505 150.153 188.398 149.663 188.184C149.174 187.969 148.73 187.618 148.332 187.128C147.965 186.638 147.659 185.996 147.414 185.2C147.169 184.405 147.077 183.441 147.139 182.309C147.23 180.534 147.582 178.851 148.194 177.26C148.806 175.669 149.571 174.292 150.489 173.129C151.438 171.936 152.493 171.002 153.656 170.329C154.85 169.625 156.043 169.273 157.236 169.273C157.757 169.273 158.231 169.411 158.659 169.687C159.088 169.931 159.455 170.268 159.761 170.696C160.067 171.094 160.312 171.538 160.495 172.027C160.709 172.517 160.862 172.976 160.954 173.404C161.168 172.517 161.367 171.645 161.551 170.788C161.734 169.931 161.918 169.12 162.102 168.355C162.408 167.223 162.729 165.999 163.065 164.684C163.371 163.551 163.723 162.251 164.121 160.782C164.519 159.313 164.963 157.768 165.452 156.146C165.758 155.902 166.049 155.718 166.324 155.596C166.6 155.473 166.86 155.382 167.104 155.32C167.38 155.229 167.64 155.183 167.885 155.183C168.191 155.183 168.466 155.229 168.711 155.32C168.956 155.382 169.155 155.58 169.308 155.917C169.491 156.223 169.614 156.697 169.675 157.34C169.736 157.982 169.736 158.854 169.675 159.956C169.614 161.302 169.369 162.771 168.94 164.362C168.543 165.953 168.007 167.606 167.334 169.319C166.661 171.002 165.881 172.701 164.993 174.414C164.136 176.097 163.203 177.703 162.193 179.233ZM159.485 179.83C159.608 179.249 159.715 178.667 159.807 178.086C159.929 177.505 160.067 176.908 160.22 176.296C160.159 176.327 160.097 176.357 160.036 176.388C160.006 176.418 159.96 176.449 159.898 176.479C159.562 176.632 159.332 176.632 159.21 176.479C159.088 176.296 159.026 176.021 159.026 175.653C159.026 175.47 159.011 175.148 158.98 174.689C158.95 174.2 158.858 173.71 158.705 173.221C158.583 172.701 158.384 172.257 158.108 171.89C157.833 171.492 157.451 171.293 156.961 171.293C156.257 171.293 155.538 171.66 154.804 172.395C154.069 173.098 153.381 173.97 152.738 175.011C152.096 176.021 151.56 177.107 151.132 178.27C150.703 179.432 150.459 180.473 150.397 181.391C150.336 182.859 150.52 183.915 150.948 184.558C151.377 185.2 151.958 185.521 152.692 185.521C153.243 185.521 153.84 185.307 154.482 184.879C155.156 184.451 155.798 183.93 156.41 183.318C157.053 182.706 157.634 182.079 158.154 181.437C158.705 180.794 159.149 180.258 159.485 179.83ZM191.109 178.453C190.191 179.799 189.151 181.115 187.988 182.4C186.826 183.655 185.586 184.787 184.271 185.797C182.985 186.776 181.654 187.572 180.277 188.184C178.931 188.796 177.615 189.102 176.33 189.102C175.657 189.102 174.923 188.933 174.127 188.597C173.362 188.291 172.658 187.801 172.016 187.128C171.373 186.455 170.853 185.583 170.455 184.512C170.088 183.441 169.981 182.14 170.134 180.61C170.256 179.356 170.639 178.04 171.281 176.663C171.954 175.256 172.765 173.97 173.714 172.808C174.693 171.645 175.779 170.681 176.973 169.916C178.197 169.151 179.421 168.769 180.645 168.769C181.807 168.769 182.649 169.059 183.169 169.641C183.689 170.222 183.919 170.941 183.857 171.798C183.766 172.746 183.49 173.618 183.031 174.414C182.603 175.21 182.083 175.929 181.471 176.571C180.859 177.214 180.201 177.795 179.497 178.315C178.824 178.836 178.181 179.31 177.569 179.738C176.896 180.197 176.254 180.641 175.642 181.069C175.03 181.467 174.494 181.834 174.035 182.171C174.066 182.936 174.203 183.578 174.448 184.099C174.693 184.619 174.999 185.047 175.366 185.384C175.733 185.69 176.146 185.919 176.605 186.072C177.095 186.195 177.585 186.256 178.074 186.256C179.115 186.256 180.201 185.935 181.333 185.292C182.465 184.619 183.567 183.823 184.638 182.905C185.739 181.957 186.749 180.978 187.667 179.968C188.616 178.958 189.396 178.086 190.008 177.352C190.222 177.107 190.436 176.969 190.65 176.938C190.895 176.877 191.079 176.908 191.201 177.03C191.354 177.122 191.431 177.306 191.431 177.581C191.431 177.826 191.324 178.117 191.109 178.453ZM179.359 171.385C178.992 171.385 178.549 171.568 178.028 171.936C177.539 172.303 177.049 172.838 176.56 173.542C176.07 174.215 175.611 175.057 175.183 176.066C174.754 177.046 174.433 178.178 174.219 179.463C174.586 179.188 174.984 178.912 175.412 178.637C175.84 178.331 176.269 178.009 176.697 177.673C178.013 176.663 178.931 175.776 179.451 175.011C179.971 174.246 180.262 173.588 180.323 173.037C180.384 172.456 180.323 172.043 180.14 171.798C179.956 171.522 179.696 171.385 179.359 171.385ZM186.061 187.771C185.846 188.107 185.617 188.321 185.372 188.413C185.097 188.535 184.867 188.551 184.684 188.459C184.469 188.398 184.332 188.245 184.271 188C184.209 187.755 184.271 187.449 184.454 187.082C184.546 186.898 184.76 186.485 185.097 185.843C185.403 185.2 185.785 184.435 186.244 183.548C186.673 182.63 187.147 181.651 187.667 180.61C188.187 179.539 188.677 178.53 189.136 177.581C189.625 176.632 190.069 175.791 190.467 175.057C190.865 174.292 191.155 173.741 191.339 173.404C191.002 173.098 190.773 172.884 190.65 172.762C190.528 172.609 190.436 172.303 190.375 171.844C190.314 171.446 190.406 170.926 190.65 170.283C190.895 169.641 191.216 169.029 191.614 168.447C192.012 167.835 192.456 167.315 192.945 166.887C193.435 166.458 193.909 166.244 194.368 166.244C195.225 166.244 195.822 166.52 196.158 167.07C196.525 167.621 196.74 168.187 196.801 168.769C196.862 169.166 196.831 169.671 196.709 170.283C196.587 170.895 196.357 171.446 196.021 171.936C196.112 171.997 196.235 172.073 196.388 172.165C196.541 172.226 196.785 172.257 197.122 172.257C197.612 172.257 197.948 172.226 198.132 172.165C198.346 172.104 198.667 172.073 199.096 172.073C199.616 172.073 200.044 172.211 200.381 172.486C200.717 172.731 200.993 173.052 201.207 173.45C201.421 173.817 201.574 174.23 201.666 174.689C201.788 175.118 201.865 175.516 201.896 175.883C201.987 176.648 201.788 177.443 201.299 178.27C200.809 179.096 200.213 179.998 199.509 180.978C199.08 181.59 198.652 182.278 198.224 183.043C197.795 183.808 197.612 184.496 197.673 185.108C197.734 185.506 197.841 185.827 197.994 186.072C198.147 186.317 198.576 186.439 199.279 186.439C199.799 186.439 200.366 186.256 200.978 185.889C201.62 185.491 202.263 185.001 202.905 184.42C203.578 183.808 204.236 183.15 204.879 182.446C205.521 181.712 206.118 181.008 206.669 180.335C207.22 179.631 207.679 179.004 208.046 178.453C208.444 177.902 208.734 177.505 208.918 177.26C209.071 177.015 209.27 176.847 209.515 176.755C209.759 176.663 209.974 176.663 210.157 176.755C210.341 176.847 210.448 177.03 210.479 177.306C210.54 177.581 210.433 177.948 210.157 178.407C209.974 178.713 209.652 179.203 209.193 179.876C208.765 180.549 208.229 181.299 207.587 182.125C206.975 182.951 206.286 183.808 205.521 184.695C204.757 185.552 203.946 186.348 203.089 187.082C202.263 187.786 201.421 188.367 200.564 188.826C199.738 189.285 198.943 189.515 198.178 189.515C197.382 189.515 196.724 189.362 196.204 189.056C195.684 188.75 195.256 188.382 194.919 187.954C194.613 187.495 194.383 187.006 194.23 186.485C194.108 185.935 194.062 185.43 194.093 184.971C194.123 184.604 194.215 184.221 194.368 183.823C194.552 183.395 194.751 182.966 194.965 182.538C195.21 182.079 195.454 181.635 195.699 181.207C195.975 180.748 196.219 180.304 196.434 179.876C196.954 178.989 197.367 178.239 197.673 177.627C198.009 176.984 198.178 176.449 198.178 176.021C198.178 175.745 198.117 175.5 197.994 175.286C197.872 175.072 197.673 174.965 197.397 174.965C197.214 174.965 197.076 174.98 196.984 175.011C196.923 175.011 196.847 175.011 196.755 175.011C196.694 175.011 196.587 175.026 196.434 175.057C196.311 175.057 196.112 175.057 195.837 175.057C195.439 175.057 195.103 174.995 194.827 174.873C194.552 174.751 194.292 174.659 194.047 174.598C193.924 174.812 193.649 175.271 193.221 175.975C192.792 176.678 192.287 177.505 191.706 178.453C191.155 179.402 190.559 180.396 189.916 181.437C189.304 182.477 188.723 183.456 188.172 184.374C187.621 185.261 187.162 186.026 186.795 186.669C186.397 187.281 186.152 187.648 186.061 187.771ZM213.508 196.767C212.62 196.767 211.794 196.369 211.029 195.573C210.295 194.808 209.683 193.691 209.193 192.223C208.734 190.785 208.398 189.01 208.184 186.898C208 184.757 208.015 182.324 208.229 179.601C208.352 177.795 208.597 175.959 208.964 174.093C209.331 172.196 209.744 170.375 210.203 168.631C210.662 166.856 211.152 165.188 211.672 163.628C212.192 162.067 212.666 160.69 213.095 159.497C213.554 158.273 213.921 157.294 214.196 156.56C214.502 155.825 214.686 155.397 214.747 155.274C214.839 155.121 215.007 154.968 215.252 154.815C215.527 154.632 215.833 154.479 216.17 154.356C216.537 154.234 216.92 154.142 217.317 154.081C217.746 153.989 218.144 153.943 218.511 153.943C218.817 153.943 219.107 153.959 219.383 153.989C219.628 154.02 219.872 154.066 220.117 154.127C220.362 154.188 220.576 154.28 220.76 154.402C220.423 154.617 220.087 154.953 219.75 155.412C219.444 155.841 219.153 156.299 218.878 156.789C218.541 157.34 218.235 157.937 217.96 158.579C217.348 159.864 216.705 161.425 216.032 163.261C215.359 165.097 214.716 167.055 214.104 169.136C213.523 171.186 213.003 173.282 212.544 175.424C212.116 177.535 211.825 179.524 211.672 181.391C211.427 185.154 211.565 187.954 212.085 189.79C212.605 191.657 213.34 192.59 214.288 192.59C214.747 192.59 215.237 192.299 215.757 191.718C216.277 191.136 216.797 190.387 217.317 189.469C217.868 188.551 218.404 187.526 218.924 186.394C219.444 185.261 219.934 184.145 220.393 183.043C220.668 182.339 220.959 181.559 221.265 180.702C221.601 179.815 221.923 178.912 222.229 177.994C222.565 177.076 222.886 176.174 223.192 175.286C223.498 174.368 223.774 173.542 224.019 172.808C224.019 171.89 224.034 170.926 224.064 169.916C224.095 168.876 224.156 167.835 224.248 166.795C224.37 165.724 224.523 164.684 224.707 163.674C224.891 162.633 225.135 161.685 225.441 160.828C226.053 159.176 226.772 157.967 227.599 157.202C228.425 156.407 229.144 155.993 229.756 155.963C230.184 155.963 230.49 156.146 230.674 156.514C230.857 156.881 230.934 157.37 230.903 157.982C230.842 158.778 230.704 159.742 230.49 160.874C230.276 161.976 230.016 163.169 229.71 164.454C229.435 165.709 229.113 166.994 228.746 168.31C228.379 169.595 228.027 170.834 227.69 172.027C227.14 175.179 226.803 178.04 226.681 180.61C226.558 183.15 226.574 185.338 226.727 187.174C226.91 188.979 227.201 190.371 227.599 191.351C228.027 192.36 228.532 192.865 229.113 192.865C229.786 192.865 230.49 192.406 231.225 191.488C231.99 190.57 232.739 189.362 233.474 187.862C234.208 186.332 234.912 184.604 235.585 182.676C236.289 180.748 236.916 178.774 237.467 176.755C238.048 174.705 238.522 172.701 238.89 170.742C239.257 168.753 239.502 166.963 239.624 165.372C239.716 164.056 239.762 162.756 239.762 161.471C239.762 160.369 239.716 159.191 239.624 157.937C239.532 156.682 239.364 155.55 239.119 154.54C239.517 154.203 240.052 153.928 240.726 153.714C241.062 153.591 241.429 153.484 241.827 153.393C242.072 153.331 242.332 153.285 242.607 153.255C242.852 153.224 243.097 153.209 243.342 153.209C243.587 153.178 243.816 153.194 244.03 153.255C244.214 153.683 244.336 154.234 244.397 154.907C244.489 155.58 244.55 156.238 244.581 156.881C244.612 157.646 244.596 158.441 244.535 159.268C244.29 162.511 243.862 165.693 243.25 168.814C242.669 171.936 241.95 174.904 241.093 177.719C240.236 180.503 239.272 183.074 238.201 185.43C237.161 187.755 236.075 189.775 234.942 191.488C233.841 193.202 232.724 194.533 231.592 195.481C230.49 196.43 229.435 196.904 228.425 196.904C227.354 196.904 226.497 196.445 225.854 195.527C225.212 194.64 224.722 193.508 224.386 192.131C224.049 190.785 223.835 189.331 223.743 187.771C223.651 186.21 223.621 184.772 223.651 183.456C222.948 185.17 222.183 186.822 221.356 188.413C220.561 190.004 219.719 191.412 218.832 192.636C217.975 193.89 217.088 194.885 216.17 195.619C215.283 196.384 214.395 196.767 213.508 196.767ZM255.413 160.966C255.321 161.302 255.138 161.639 254.862 161.976C254.618 162.282 254.327 162.542 253.99 162.756C253.684 162.939 253.363 163.062 253.026 163.123C252.69 163.184 252.414 163.123 252.2 162.939C251.558 162.45 251.221 161.93 251.19 161.379C251.16 160.798 251.298 160.262 251.604 159.772C251.91 159.252 252.292 158.824 252.751 158.487C253.21 158.12 253.608 157.906 253.944 157.845C254.281 157.784 254.556 157.86 254.771 158.074C255.015 158.258 255.199 158.518 255.321 158.854C255.444 159.16 255.505 159.512 255.505 159.91C255.535 160.308 255.505 160.66 255.413 160.966ZM249.079 170.742C249.232 170.559 249.523 170.406 249.951 170.283C250.38 170.161 250.823 170.069 251.282 170.008C251.741 169.916 252.154 169.87 252.521 169.87C252.919 169.84 253.149 169.84 253.21 169.87C253.241 169.901 253.164 170.222 252.98 170.834C252.797 171.446 252.567 172.165 252.292 172.991C252.017 173.817 251.726 174.674 251.42 175.562C251.114 176.418 250.884 177.122 250.731 177.673C250.578 178.224 250.395 178.851 250.181 179.555C249.966 180.228 249.768 180.901 249.584 181.574C249.431 182.217 249.324 182.829 249.263 183.41C249.201 183.992 249.247 184.435 249.4 184.741C249.553 185.108 249.722 185.368 249.905 185.521C250.089 185.644 250.288 185.705 250.502 185.705C251.114 185.705 251.879 185.368 252.797 184.695C253.745 184.022 254.694 183.227 255.643 182.309C256.622 181.36 257.524 180.411 258.351 179.463C259.177 178.484 259.789 177.703 260.187 177.122C260.431 176.816 260.676 176.617 260.921 176.525C261.196 176.434 261.41 176.449 261.563 176.571C261.747 176.694 261.839 176.893 261.839 177.168C261.869 177.443 261.778 177.765 261.563 178.132C261.074 178.989 260.355 180.014 259.406 181.207C258.458 182.37 257.448 183.502 256.377 184.604C255.306 185.674 254.25 186.592 253.21 187.357C252.2 188.122 251.374 188.52 250.731 188.551C250.211 188.581 249.691 188.49 249.171 188.275C248.681 188.092 248.222 187.832 247.794 187.495C247.396 187.128 247.06 186.715 246.784 186.256C246.509 185.766 246.356 185.261 246.325 184.741C246.233 183.976 246.233 182.936 246.325 181.62C246.417 180.274 246.585 178.912 246.83 177.535C247.075 176.128 247.381 174.797 247.748 173.542C248.146 172.287 248.59 171.354 249.079 170.742ZM282.08 180.61C281.866 180.916 281.514 181.36 281.024 181.941C280.565 182.523 279.999 183.15 279.326 183.823C278.684 184.496 277.934 185.2 277.077 185.935C276.251 186.638 275.364 187.281 274.415 187.862C274.293 188.566 274.063 189.561 273.727 190.846C273.39 192.161 272.946 193.584 272.396 195.114C271.845 196.644 271.202 198.189 270.468 199.75C269.733 201.341 268.907 202.779 267.989 204.064C267.102 205.38 266.123 206.436 265.052 207.231C263.981 208.058 262.849 208.471 261.655 208.471C260.462 208.471 259.529 208.272 258.855 207.874C258.182 207.476 257.693 206.956 257.387 206.313C257.05 205.702 256.851 205.013 256.79 204.248C256.729 203.514 256.714 202.795 256.744 202.091C256.775 201.173 257.05 200.102 257.57 198.878C258.09 197.685 258.81 196.461 259.728 195.206C260.676 193.982 261.808 192.804 263.124 191.672C264.44 190.57 265.909 189.637 267.53 188.872C268.326 188.535 269.06 188.214 269.733 187.908C270.407 187.572 271.034 187.25 271.615 186.944C271.86 185.935 271.875 185.261 271.661 184.925C271.478 184.588 271.202 184.42 270.835 184.42C270.284 184.42 269.626 184.665 268.861 185.154C268.127 185.644 267.209 186.409 266.107 187.449C265.801 187.48 265.526 187.449 265.281 187.357C265.067 187.235 264.883 187.097 264.73 186.944C264.547 186.791 264.394 186.608 264.271 186.394C263.935 185.873 263.782 185.353 263.812 184.833C263.874 184.313 264.118 183.9 264.547 183.594C264.975 183.257 265.603 182.722 266.429 181.987C267.285 181.222 268.112 180.258 268.907 179.096C269.152 178.759 269.443 178.346 269.779 177.856C270.146 177.336 270.498 176.785 270.835 176.204C271.202 175.592 271.539 174.965 271.845 174.322C272.181 173.68 272.441 173.068 272.625 172.486C272.013 172.395 271.126 172.41 269.963 172.532C269.351 172.655 268.693 172.792 267.989 172.945C267.377 173.098 266.674 173.297 265.878 173.542C265.113 173.787 264.302 174.123 263.445 174.552C263.323 174.491 263.231 174.368 263.17 174.185C263.109 174.001 263.063 173.787 263.032 173.542C263.002 173.267 262.986 172.961 262.986 172.624C262.986 172.196 263.048 171.844 263.17 171.568C263.323 171.262 263.507 171.018 263.721 170.834C263.935 170.65 264.164 170.513 264.409 170.421C264.654 170.299 264.868 170.207 265.052 170.146C265.266 170.084 265.679 170.008 266.291 169.916C266.934 169.794 267.653 169.687 268.448 169.595C269.244 169.503 270.07 169.442 270.927 169.411C271.784 169.35 272.564 169.335 273.268 169.365C274.706 169.457 275.608 169.656 275.976 169.962C276.373 170.237 276.48 170.681 276.297 171.293C276.083 171.905 275.67 172.945 275.058 174.414C274.446 175.852 273.512 177.52 272.258 179.417C271.738 180.121 271.263 180.779 270.835 181.391C270.407 182.003 269.993 182.538 269.596 182.997C270.116 182.752 270.636 182.569 271.156 182.446C271.676 182.293 272.197 182.217 272.717 182.217C273.421 182.217 273.88 182.553 274.094 183.227C274.339 183.9 274.476 184.634 274.507 185.43C275.731 184.665 276.817 183.854 277.766 182.997C278.745 182.14 279.785 181.039 280.887 179.692C281.162 179.356 281.407 179.157 281.621 179.096C281.866 179.035 282.049 179.08 282.172 179.233C282.294 179.356 282.355 179.555 282.355 179.83C282.355 180.075 282.264 180.335 282.08 180.61ZM270.605 190.616C270.667 190.371 270.728 190.142 270.789 189.928C270.881 189.744 270.957 189.545 271.019 189.331C269.427 190.218 267.974 191.152 266.658 192.131C265.342 193.141 264.195 194.196 263.216 195.298C262.267 196.399 261.518 197.547 260.967 198.74C260.416 199.934 260.11 201.142 260.049 202.366C260.018 203.101 260.125 203.728 260.37 204.248C260.646 204.768 261.12 205.028 261.793 205.028C262.527 205.028 263.308 204.493 264.134 203.422C264.991 202.382 265.817 201.096 266.612 199.566C267.438 198.067 268.203 196.491 268.907 194.839C269.611 193.217 270.177 191.81 270.605 190.616Z" fill="#99FF33"/>
<defs>
<filter id="filter0_d_1_2" x="66" y="42" width="266" height="266" filterUnits="userSpaceOnUse" color-interpolation-filters="sRGB">
<feFlood flood-opacity="0" result="BackgroundImageFix"/>
<feColorMatrix in="SourceAlpha" type="matrix" values="0 0 0 0 0 0 0 0 0 0 0 0 0 0 0 0 0 0 127 0" result="hardAlpha"/>
<feOffset dy="4"/>
<feGaussianBlur stdDeviation="2"/>
<feComposite in2="hardAlpha" operator="out"/>
<feColorMatrix type="matrix" values="0 0 0 0 0 0 0 0 0 0 0 0 0 0 0 0 0 0 0.25 0"/>
<feBlend mode="normal" in2="BackgroundImageFix" result="effect1_dropShadow_1_2"/>
<feBlend mode="normal" in="SourceGraphic" in2="effect1_dropShadow_1_2" result="shape"/>
</filter>
</defs>
</svg>
